<mxfile host="app.diagrams.net" modified="2020-10-22T23:22:48.099Z" agent="5.0 (Windows NT 10.0; Win64; x64) AppleWebKit/537.36 (KHTML, like Gecko) Chrome/86.0.4240.75 Safari/537.36" etag="bkKUvr03rhzFMj3diRE4" version="13.8.1" type="github">
  <diagram id="C5RBs43oDa-KdzZeNtuy" name="Page-1">
    <mxGraphModel dx="862" dy="450" grid="1" gridSize="10" guides="1" tooltips="1" connect="1" arrows="1" fold="1" page="1" pageScale="1" pageWidth="827" pageHeight="1169" math="0" shadow="0">
      <root>
        <mxCell id="WIyWlLk6GJQsqaUBKTNV-0" />
        <mxCell id="WIyWlLk6GJQsqaUBKTNV-1" parent="WIyWlLk6GJQsqaUBKTNV-0" />
        <mxCell id="zmllMLnsr8cONgRAwhM8-48" value="BunnyFilter" style="swimlane;fontStyle=1;align=center;verticalAlign=top;childLayout=stackLayout;horizontal=1;startSize=26;horizontalStack=0;resizeParent=1;resizeParentMax=0;resizeLast=0;collapsible=1;marginBottom=0;" vertex="1" parent="WIyWlLk6GJQsqaUBKTNV-1">
          <mxGeometry x="530" y="280" width="260" height="60" as="geometry" />
        </mxCell>
        <mxCell id="zmllMLnsr8cONgRAwhM8-50" value="" style="line;strokeWidth=1;fillColor=none;align=left;verticalAlign=middle;spacingTop=-1;spacingLeft=3;spacingRight=3;rotatable=0;labelPosition=right;points=[];portConstraint=eastwest;" vertex="1" parent="zmllMLnsr8cONgRAwhM8-48">
          <mxGeometry y="26" width="260" height="8" as="geometry" />
        </mxCell>
        <mxCell id="zmllMLnsr8cONgRAwhM8-51" value="+ filterBunny(String, ArrayList&lt;Bunny&gt;): void" style="text;strokeColor=none;fillColor=none;align=left;verticalAlign=top;spacingLeft=4;spacingRight=4;overflow=hidden;rotatable=0;points=[[0,0.5],[1,0.5]];portConstraint=eastwest;" vertex="1" parent="zmllMLnsr8cONgRAwhM8-48">
          <mxGeometry y="34" width="260" height="26" as="geometry" />
        </mxCell>
        <mxCell id="zmllMLnsr8cONgRAwhM8-28" value="Bunny" style="swimlane;fontStyle=1;align=center;verticalAlign=top;childLayout=stackLayout;horizontal=1;startSize=26;horizontalStack=0;resizeParent=1;resizeParentMax=0;resizeLast=0;collapsible=1;marginBottom=0;" vertex="1" parent="WIyWlLk6GJQsqaUBKTNV-1">
          <mxGeometry x="30" y="130" width="180" height="110" as="geometry" />
        </mxCell>
        <mxCell id="zmllMLnsr8cONgRAwhM8-29" value="- idea: StringÂ &#xa;- genre: String&#xa;" style="text;strokeColor=none;fillColor=none;align=left;verticalAlign=top;spacingLeft=4;spacingRight=4;overflow=hidden;rotatable=0;points=[[0,0.5],[1,0.5]];portConstraint=eastwest;" vertex="1" parent="zmllMLnsr8cONgRAwhM8-28">
          <mxGeometry y="26" width="180" height="44" as="geometry" />
        </mxCell>
        <mxCell id="zmllMLnsr8cONgRAwhM8-30" value="" style="line;strokeWidth=1;fillColor=none;align=left;verticalAlign=middle;spacingTop=-1;spacingLeft=3;spacingRight=3;rotatable=0;labelPosition=right;points=[];portConstraint=eastwest;" vertex="1" parent="zmllMLnsr8cONgRAwhM8-28">
          <mxGeometry y="70" width="180" height="8" as="geometry" />
        </mxCell>
        <mxCell id="zmllMLnsr8cONgRAwhM8-31" value="+ getDescription(void): String" style="text;strokeColor=none;fillColor=none;align=left;verticalAlign=top;spacingLeft=4;spacingRight=4;overflow=hidden;rotatable=0;points=[[0,0.5],[1,0.5]];portConstraint=eastwest;" vertex="1" parent="zmllMLnsr8cONgRAwhM8-28">
          <mxGeometry y="78" width="180" height="32" as="geometry" />
        </mxCell>
        <mxCell id="zmllMLnsr8cONgRAwhM8-32" value="BunnyList" style="swimlane;fontStyle=1;align=center;verticalAlign=top;childLayout=stackLayout;horizontal=1;startSize=26;horizontalStack=0;resizeParent=1;resizeParentMax=0;resizeLast=0;collapsible=1;marginBottom=0;" vertex="1" parent="WIyWlLk6GJQsqaUBKTNV-1">
          <mxGeometry x="319" y="110" width="190" height="130" as="geometry" />
        </mxCell>
        <mxCell id="zmllMLnsr8cONgRAwhM8-33" value="+ bunniesList: ArrayList&lt;Bunny&gt;" style="text;strokeColor=none;fillColor=none;align=left;verticalAlign=top;spacingLeft=4;spacingRight=4;overflow=hidden;rotatable=0;points=[[0,0.5],[1,0.5]];portConstraint=eastwest;" vertex="1" parent="zmllMLnsr8cONgRAwhM8-32">
          <mxGeometry y="26" width="190" height="34" as="geometry" />
        </mxCell>
        <mxCell id="zmllMLnsr8cONgRAwhM8-34" value="" style="line;strokeWidth=1;fillColor=none;align=left;verticalAlign=middle;spacingTop=-1;spacingLeft=3;spacingRight=3;rotatable=0;labelPosition=right;points=[];portConstraint=eastwest;" vertex="1" parent="zmllMLnsr8cONgRAwhM8-32">
          <mxGeometry y="60" width="190" height="8" as="geometry" />
        </mxCell>
        <mxCell id="zmllMLnsr8cONgRAwhM8-35" value="+ addBunny(String): void&#xa;+ listBunny(void): (void)&#xa;+ numBunny(void): int" style="text;strokeColor=none;fillColor=none;align=left;verticalAlign=top;spacingLeft=4;spacingRight=4;overflow=hidden;rotatable=0;points=[[0,0.5],[1,0.5]];portConstraint=eastwest;" vertex="1" parent="zmllMLnsr8cONgRAwhM8-32">
          <mxGeometry y="68" width="190" height="62" as="geometry" />
        </mxCell>
        <mxCell id="zmllMLnsr8cONgRAwhM8-58" value="" style="endArrow=open;endFill=1;endSize=12;html=1;entryX=0.994;entryY=0.127;entryDx=0;entryDy=0;entryPerimeter=0;exitX=-0.016;exitY=0.206;exitDx=0;exitDy=0;exitPerimeter=0;" edge="1" parent="WIyWlLk6GJQsqaUBKTNV-1" source="zmllMLnsr8cONgRAwhM8-33" target="zmllMLnsr8cONgRAwhM8-28">
          <mxGeometry width="160" relative="1" as="geometry">
            <mxPoint x="220" y="270" as="sourcePoint" />
            <mxPoint x="380" y="270" as="targetPoint" />
          </mxGeometry>
        </mxCell>
        <mxCell id="zmllMLnsr8cONgRAwhM8-59" value="" style="endArrow=open;endFill=1;endSize=12;html=1;entryX=1.032;entryY=0.339;entryDx=0;entryDy=0;entryPerimeter=0;exitX=0.385;exitY=-0.033;exitDx=0;exitDy=0;exitPerimeter=0;" edge="1" parent="WIyWlLk6GJQsqaUBKTNV-1">
          <mxGeometry width="160" relative="1" as="geometry">
            <mxPoint x="624.0199999999999" y="280" as="sourcePoint" />
            <mxPoint x="508.99999999999994" y="200.99800000000002" as="targetPoint" />
            <Array as="points">
              <mxPoint x="623.92" y="200.98" />
            </Array>
          </mxGeometry>
        </mxCell>
        <mxCell id="zmllMLnsr8cONgRAwhM8-60" value="" style="endArrow=open;endFill=1;endSize=12;html=1;entryX=0.363;entryY=1.065;entryDx=0;entryDy=0;entryPerimeter=0;exitX=1.015;exitY=0.163;exitDx=0;exitDy=0;exitPerimeter=0;" edge="1" parent="WIyWlLk6GJQsqaUBKTNV-1">
          <mxGeometry width="160" relative="1" as="geometry">
            <mxPoint x="281.9000000000001" y="318.03999999999996" as="sourcePoint" />
            <mxPoint x="385.97" y="239.02999999999997" as="targetPoint" />
            <Array as="points">
              <mxPoint x="386" y="318" />
            </Array>
          </mxGeometry>
        </mxCell>
        <mxCell id="zmllMLnsr8cONgRAwhM8-36" value="DeleteBunny" style="swimlane;fontStyle=1;align=center;verticalAlign=top;childLayout=stackLayout;horizontal=1;startSize=26;horizontalStack=0;resizeParent=1;resizeParentMax=0;resizeLast=0;collapsible=1;marginBottom=0;" vertex="1" parent="WIyWlLk6GJQsqaUBKTNV-1">
          <mxGeometry x="20" y="310" width="260" height="80" as="geometry" />
        </mxCell>
        <mxCell id="zmllMLnsr8cONgRAwhM8-38" value="" style="line;strokeWidth=1;fillColor=none;align=left;verticalAlign=middle;spacingTop=-1;spacingLeft=3;spacingRight=3;rotatable=0;labelPosition=right;points=[];portConstraint=eastwest;" vertex="1" parent="zmllMLnsr8cONgRAwhM8-36">
          <mxGeometry y="26" width="260" height="8" as="geometry" />
        </mxCell>
        <mxCell id="zmllMLnsr8cONgRAwhM8-39" value="+ deleteBunny(String, ArrayList&lt;Bunny&gt;): void&#xa;+ getNumFromInput(String, int): int" style="text;strokeColor=none;fillColor=none;align=left;verticalAlign=top;spacingLeft=4;spacingRight=4;overflow=hidden;rotatable=0;points=[[0,0.5],[1,0.5]];portConstraint=eastwest;" vertex="1" parent="zmllMLnsr8cONgRAwhM8-36">
          <mxGeometry y="34" width="260" height="46" as="geometry" />
        </mxCell>
        <mxCell id="zmllMLnsr8cONgRAwhM8-44" value="BunnySaver" style="swimlane;fontStyle=1;align=center;verticalAlign=top;childLayout=stackLayout;horizontal=1;startSize=26;horizontalStack=0;resizeParent=1;resizeParentMax=0;resizeLast=0;collapsible=1;marginBottom=0;" vertex="1" parent="WIyWlLk6GJQsqaUBKTNV-1">
          <mxGeometry x="200" y="420" width="250" height="60" as="geometry" />
        </mxCell>
        <mxCell id="zmllMLnsr8cONgRAwhM8-46" value="" style="line;strokeWidth=1;fillColor=none;align=left;verticalAlign=middle;spacingTop=-1;spacingLeft=3;spacingRight=3;rotatable=0;labelPosition=right;points=[];portConstraint=eastwest;" vertex="1" parent="zmllMLnsr8cONgRAwhM8-44">
          <mxGeometry y="26" width="250" height="8" as="geometry" />
        </mxCell>
        <mxCell id="zmllMLnsr8cONgRAwhM8-47" value="+ saveAllBunny(File, ArrayList&lt;Bunny&gt;): void" style="text;strokeColor=none;fillColor=none;align=left;verticalAlign=top;spacingLeft=4;spacingRight=4;overflow=hidden;rotatable=0;points=[[0,0.5],[1,0.5]];portConstraint=eastwest;" vertex="1" parent="zmllMLnsr8cONgRAwhM8-44">
          <mxGeometry y="34" width="250" height="26" as="geometry" />
        </mxCell>
        <mxCell id="zmllMLnsr8cONgRAwhM8-61" value="" style="endArrow=open;endFill=1;endSize=12;html=1;exitX=0.9;exitY=0.984;exitDx=0;exitDy=0;exitPerimeter=0;" edge="1" parent="WIyWlLk6GJQsqaUBKTNV-1" source="zmllMLnsr8cONgRAwhM8-35">
          <mxGeometry width="160" relative="1" as="geometry">
            <mxPoint x="460" y="370" as="sourcePoint" />
            <mxPoint x="490" y="420" as="targetPoint" />
          </mxGeometry>
        </mxCell>
        <mxCell id="zmllMLnsr8cONgRAwhM8-40" value="BunnyLoader" style="swimlane;fontStyle=1;align=center;verticalAlign=top;childLayout=stackLayout;horizontal=1;startSize=26;horizontalStack=0;resizeParent=1;resizeParentMax=0;resizeLast=0;collapsible=1;marginBottom=0;" vertex="1" parent="WIyWlLk6GJQsqaUBKTNV-1">
          <mxGeometry x="480" y="420" width="260" height="80" as="geometry">
            <mxRectangle x="480" y="420" width="110" height="26" as="alternateBounds" />
          </mxGeometry>
        </mxCell>
        <mxCell id="zmllMLnsr8cONgRAwhM8-42" value="" style="line;strokeWidth=1;fillColor=none;align=left;verticalAlign=middle;spacingTop=-1;spacingLeft=3;spacingRight=3;rotatable=0;labelPosition=right;points=[];portConstraint=eastwest;" vertex="1" parent="zmllMLnsr8cONgRAwhM8-40">
          <mxGeometry y="26" width="260" height="8" as="geometry" />
        </mxCell>
        <mxCell id="zmllMLnsr8cONgRAwhM8-43" value="+ loadBunnyFile(ArrayList&lt;Bunny&gt;): void&#xa;+ readBunnyFile(File, ArrayList&lt;Bunny&gt;): void" style="text;strokeColor=none;fillColor=none;align=left;verticalAlign=top;spacingLeft=4;spacingRight=4;overflow=hidden;rotatable=0;points=[[0,0.5],[1,0.5]];portConstraint=eastwest;" vertex="1" parent="zmllMLnsr8cONgRAwhM8-40">
          <mxGeometry y="34" width="260" height="46" as="geometry" />
        </mxCell>
        <mxCell id="zmllMLnsr8cONgRAwhM8-62" value="" style="endArrow=open;endFill=1;endSize=12;html=1;entryX=0.542;entryY=1;entryDx=0;entryDy=0;entryPerimeter=0;" edge="1" parent="WIyWlLk6GJQsqaUBKTNV-1" target="zmllMLnsr8cONgRAwhM8-35">
          <mxGeometry width="160" relative="1" as="geometry">
            <mxPoint x="422" y="421" as="sourcePoint" />
            <mxPoint x="520" y="380" as="targetPoint" />
          </mxGeometry>
        </mxCell>
      </root>
    </mxGraphModel>
  </diagram>
</mxfile>
